<?xml version="1.0" encoding="UTF-8"?>
<svg width="18px" height="22px" viewBox="0 0 18 22" version="1.1" xmlns="http://www.w3.org/2000/svg" xmlns:xlink="http://www.w3.org/1999/xlink">
    <title>快速高效</title>
    <g id="页面-1" stroke="none" stroke-width="1" fill="none" fill-rule="evenodd">
        <g id="全新商城" transform="translate(-151.000000, -541.000000)" fill="#1677FF" fill-rule="nonzero">
            <g id="快速高效" transform="translate(151.000000, 541.440860)">
                <path d="M9.71247374,0.305971923 L13.293471,4.02069775 C13.3833031,4.11388454 13.4334975,4.23827667 13.4334975,4.36771232 L13.4334975,7.65718623 C13.4334975,7.78878737 13.485381,7.91508243 13.5778944,8.00867797 L17.8556031,12.3364225 C17.9481165,12.430018 18,12.5563131 18,12.6879142 L18,15.3112471 C18,15.5873895 17.7761424,15.8112471 17.5,15.8112471 L13.9245309,15.8112471 C13.6483885,15.8112471 13.4245309,16.0351047 13.4245309,16.3112471 L13.4245309,21.5591404 L13.4245309,21.5591404 L11.9300935,21.5591404 L11.9300935,15.1555788 L11.9390602,15.1555788 L11.9390602,4.98255757 C11.9390602,4.85312266 11.8888663,4.72873118 11.7990351,4.63554454 L9.7124792,2.47104999 C9.32917918,2.07343266 8.69612059,2.06182618 8.29850326,2.4451262 C8.2897038,2.4536088 8.2810606,2.46225202 8.27257801,2.47105149 L6.18691056,4.63463344 C6.0968463,4.72806224 6.04663473,4.85284757 6.04688716,4.98261832 L6.06791389,15.7920961 L6.06791389,15.7920961 L6.06093984,15.7920961 L6.06093984,17.96069 L4.56650247,17.96069 L4.56650247,16.2920961 C4.56650247,16.0159537 4.34264484,15.7920961 4.06650247,15.7920961 L0.5,15.7920961 C0.223857625,15.7920961 1.4483999e-16,15.5682385 0,15.2920961 L0,12.6878983 C-1.51491641e-15,12.5563066 0.0518760465,12.4300198 0.144377701,12.336426 L4.41326944,8.01712947 C4.50600028,7.92330371 4.55789462,7.79663328 4.55764625,7.6647158 L4.55144085,4.36876386 C4.55119654,4.23900256 4.60140857,4.11422872 4.69146698,4.02080743 L8.27258087,0.305970924 C8.65588313,-0.0916442481 9.28894178,-0.103247159 9.68655695,0.280055098 C9.69535349,0.288534984 9.70399387,0.297175377 9.71247374,0.305971923 Z M13.5334975,14.2993294 L16.3055626,14.2993294 C16.4160196,14.2993294 16.5055626,14.2097864 16.5055626,14.0993294 L16.5055626,13.1911086 C16.5055626,13.1384682 16.4848092,13.0879501 16.4478039,13.0505119 L13.6046182,10.1740698 C13.5657934,10.1347909 13.502478,10.1344228 13.4631992,10.1732475 C13.4441935,10.1920335 13.4334975,10.2176449 13.4334975,10.2443681 L13.4334975,14.1993294 C13.4334975,14.2545579 13.4782691,14.2993294 13.5334975,14.2993294 Z M4.39137955,10.1776149 L1.55219613,13.0500079 C1.51519077,13.0874462 1.49443737,13.1379642 1.49443737,13.1906046 L1.49443737,14.0801785 C1.49443737,14.1906354 1.58398042,14.2801785 1.69443737,14.2801785 L4.47028936,14.2801785 C4.52551784,14.2801785 4.57028936,14.2354069 4.57028936,14.1801785 C4.57028936,14.1801124 4.5702893,14.1800464 4.57028917,14.1799804 L4.56249998,10.2477152 C4.56239058,10.1924868 4.51753046,10.1478041 4.46230209,10.1479135 C4.43564763,10.1479663 4.41011724,10.1586581 4.39137955,10.1776149 Z" id="形状"></path>
            </g>
        </g>
    </g>
</svg>