<?xml version="1.0" encoding="UTF-8"?>
<svg width="20px" height="20px" viewBox="0 0 20 20" version="1.1" xmlns="http://www.w3.org/2000/svg" xmlns:xlink="http://www.w3.org/1999/xlink">
    <title>售后 (2)</title>
    <g id="页面-1" stroke="none" stroke-width="1" fill="none" fill-rule="evenodd">
        <g id="全新商城" transform="translate(-246.000000, -542.000000)" fill="#1677FF" fill-rule="nonzero">
            <g id="售后-(2)" transform="translate(246.000000, 542.000000)">
                <path d="M19.9869567,11.1666667 C20.0708807,10.75 19.7351847,10.4166667 19.3994887,10.4166667 C19.0637927,10.4166667 18.8120206,10.6666667 18.8120206,11 C18.3084766,15.3333333 14.6158203,18.75 10.083924,18.75 C6.30734373,18.75 3.1182315,16.4166667 1.85937141,13.0833333 L3.13651103,13.0833333 C3.24696798,13.0833333 3.33651103,12.9937903 3.33651103,12.8833333 C3.33651103,12.8300452 3.31524528,12.7789605 3.27743208,12.7414134 L1.10405535,10.5833333 L1.10405535,10.5833333 C1.02013134,10.5 0.852283331,10.4166667 0.684435306,10.4166667 C0.264815282,10.4166667 0.0130432632,10.75 0.096967276,11.1666667 C0.600511313,16.0833333 4.88063563,20 9.99999999,20 C15.2032884,20 19.3994887,16.0833333 19.9869567,11.1666667 Z M0.0130432632,8.83333334 C-0.0708807495,9.25 0.264815282,9.58333334 0.600511313,9.58333334 C0.936207344,9.58333334 1.18797936,9.33333334 1.18797934,9 C1.69152338,4.66666666 5.38417964,1.25 9.916076,1.25 C13.6926563,1.25 16.8817685,3.58333334 18.1406286,6.91666666 L16.863489,6.91666666 C16.753032,6.91666666 16.663489,7.00620971 16.663489,7.11666666 C16.663489,7.16995475 16.6847547,7.2210395 16.7225679,7.25858657 L18.8959447,9.41666666 L18.8959447,9.41666666 C18.9798687,9.5 19.1477167,9.58333334 19.3155647,9.58333334 C19.7351847,9.58333334 19.9869567,9.25 19.9030327,8.83333334 C19.3994887,3.91666666 15.2032884,-1.77635684e-15 10,-1.77635684e-15 C4.79671159,-1.77635684e-15 0.600511313,3.91666666 0.0130432632,8.83333334 Z" id="形状" transform="translate(10.000000, 10.000000) rotate(-90.000000) translate(-10.000000, -10.000000) "></path>
                <path d="M4.96455962,9.5 L4.62886361,8.5 C5.71987568,7.5 6.47519173,6.41666666 6.97873577,5.25 L7.98582384,5.41666666 C7.81797584,5.75 7.73405182,6 7.56620382,6.25 L9.916076,6.25 C9.74822799,5.91666666 9.58037997,5.58333334 9.41253196,5.33333334 L10.503544,5.16666666 C10.671392,5.5 10.8392401,5.83333332 10.9231641,6.25 L14.0283523,6.25 L14.0283523,7.08333334 L10.8392401,7.08333334 L10.8392401,7.66666666 L13.5248082,7.66666666 L13.5248082,8.5 L10.8392401,8.5 L10.8392401,9.08333334 L13.6087323,9.08333334 L13.6087323,9.91666666 L10.8392401,9.91666666 L10.8392401,10.5 L14.1962003,10.5 L14.1962003,11.3333333 L6.05557171,11.3333333 L6.05557171,8.41666666 C5.71987568,8.83333332 5.38417966,9.16666666 4.96455962,9.5 Z M13.6087323,15.3333333 L12.6016442,15.3333333 L12.6016442,14.8333333 L7.06265978,14.8333333 L7.06265978,15.3333333 L6.05557171,15.3333333 L6.05557171,12 L13.6087323,12 L13.6087323,15.3333333 Z M9.83215198,7.08333334 L7.06265978,7.08333334 L7.06265978,7.66666666 L9.83215198,7.66666666 L9.83215198,7.08333334 Z M9.83215198,8.5 L7.06265978,8.5 L7.06265978,9.08333334 L9.83215198,9.08333334 L9.83215198,8.5 Z M9.83215198,9.91666666 L7.06265978,9.91666666 L7.06265978,10.5 L9.83215198,10.5 L9.83215198,9.91666666 Z M12.6016442,14 L12.6016442,12.9166667 L7.06265978,12.9166667 L7.06265978,14 L12.6016442,14 L12.6016442,14 Z" id="形状"></path>
            </g>
        </g>
    </g>
</svg>